<svg width="20" height="20" viewBox="0 0 20 20" fill="none" xmlns="http://www.w3.org/2000/svg">
<path fill-rule="evenodd" clip-rule="evenodd" d="M7.5 14.25H12.5V5.75H7.5V14.25Z" fill="#FF5F00"/>
<path fill-rule="evenodd" clip-rule="evenodd" d="M7.87535 10C7.87535 8.2455 8.70621 6.68289 10 5.67593C9.05388 4.93939 7.8599 4.5 6.56225 4.5C3.49024 4.5 1 6.96232 1 10C1 13.0375 3.49024 15.5 6.56225 15.5C7.8599 15.5 9.05388 15.0606 10 14.3241C8.70621 13.317 7.87535 11.7545 7.87535 10" fill="#EB001B"/>
<path fill-rule="evenodd" clip-rule="evenodd" d="M18.9525 13.4082V13.1946H18.8957L18.8305 13.3414L18.7651 13.1946H18.7083V13.4082H18.7484V13.2471L18.8096 13.3858H18.8512L18.9125 13.2467V13.4082H18.9525ZM18.593 13.408V13.2309H18.6656V13.1947H18.4805V13.2309H18.5531V13.408H18.593ZM19.1273 10C19.1273 13.0375 16.6195 15.5 13.5258 15.5C12.2189 15.5 11.0167 15.0606 10.0637 14.3241C11.3667 13.317 12.2034 11.7545 12.2034 10C12.2034 8.2455 11.3667 6.68289 10.0637 5.67593C11.0167 4.93939 12.2189 4.5 13.5258 4.5C16.6195 4.5 19.1273 6.96232 19.1273 10V10Z" fill="#F79E1B"/>
</svg>
