<svg width="14" height="16" viewBox="0 0 14 16" fill="none" xmlns="http://www.w3.org/2000/svg">
<path d="M12.3333 0H1.66665V1.33333H12.3333V0ZM1.66665 16H12.3333V14.6667H1.66665V16ZM12.3333 2.66667H1.66665C0.933313 2.66667 0.333313 3.26667 0.333313 4V12C0.333313 12.7333 0.933313 13.3333 1.66665 13.3333H12.3333C13.0666 13.3333 13.6666 12.7333 13.6666 12V4C13.6666 3.26667 13.0666 2.66667 12.3333 2.66667ZM6.99998 4.5C7.82665 4.5 8.49998 5.17333 8.49998 6C8.49998 6.82667 7.82665 7.5 6.99998 7.5C6.17331 7.5 5.49998 6.82667 5.49998 6C5.49998 5.17333 6.17331 4.5 6.99998 4.5ZM10.3333 11.3333H3.66665V10.3333C3.66665 9.22 5.88665 8.66667 6.99998 8.66667C8.11331 8.66667 10.3333 9.22 10.3333 10.3333V11.3333Z" fill="#84818A"/>
</svg>
