<svg width="20" height="20" viewBox="0 0 20 20" fill="none" xmlns="http://www.w3.org/2000/svg">
<rect opacity="0.2" width="20" height="20" rx="10" fill="#0AABFA"/>
<path d="M10 6.5625C9.1371 6.5625 8.43754 7.26206 8.43754 8.125C8.43754 8.98794 9.1371 9.6875 10 9.6875C10.863 9.6875 11.5625 8.98794 11.5625 8.125C11.5625 7.26206 10.863 6.5625 10 6.5625Z" fill="#0AABFA"/>
<path d="M8.33337 10.5208C7.47043 10.5208 6.77087 11.2204 6.77087 12.0833V12.5785C6.77087 12.8923 6.99833 13.1599 7.30807 13.2105C9.09092 13.5015 10.9092 13.5015 12.692 13.2105C13.0018 13.1599 13.2292 12.8923 13.2292 12.5785V12.0833C13.2292 11.2204 12.5297 10.5208 11.6667 10.5208H11.5247C11.4478 10.5208 11.3714 10.533 11.2983 10.5568L10.9377 10.6746C10.3284 10.8736 9.67165 10.8736 9.06237 10.6746L8.70174 10.5568C8.62866 10.533 8.55227 10.5208 8.4754 10.5208H8.33337Z" fill="#0AABFA"/>
</svg>
