<svg width="10" height="10" viewBox="0 0 10 10" fill="none" xmlns="http://www.w3.org/2000/svg">
<path d="M5.00004 1.5625C4.1371 1.5625 3.43754 2.26206 3.43754 3.125C3.43754 3.98794 4.1371 4.6875 5.00004 4.6875C5.86299 4.6875 6.56254 3.98794 6.56254 3.125C6.56254 2.26206 5.86299 1.5625 5.00004 1.5625Z" fill="#0AABFA"/>
<path d="M3.33337 5.52083C2.47043 5.52083 1.77087 6.22039 1.77087 7.08333V7.57845C1.77087 7.8923 1.99833 8.15989 2.30807 8.21047C4.09092 8.50154 5.90917 8.50154 7.69201 8.21047C8.00176 8.15989 8.22921 7.8923 8.22921 7.57845V7.08333C8.22921 6.22039 7.52965 5.52083 6.66671 5.52083H6.52468C6.44781 5.52083 6.37142 5.53299 6.29834 5.55685L5.93771 5.67461C5.32843 5.87356 4.67165 5.87356 4.06237 5.67461L3.70174 5.55685C3.62866 5.53299 3.55227 5.52083 3.4754 5.52083H3.33337Z" fill="#0AABFA"/>
</svg>
