<svg width="11" height="11" viewBox="0 0 11 11" fill="none" xmlns="http://www.w3.org/2000/svg">
<path d="M10.0833 3.57951V7.42034C10.0833 8.89159 8.89163 10.0833 7.42038 10.0833H3.57954C2.10829 10.0833 0.916626 8.89159 0.916626 7.42034V3.57951C0.916626 2.43826 1.38413 1.60867 2.21371 1.20534C2.51621 1.05867 2.86454 1.28784 2.86454 1.62242V5.69242C2.86454 6.23784 3.07538 6.67326 3.45579 6.89326C3.84079 7.10867 4.32663 7.06284 4.82163 6.76492L5.41746 6.40742C5.45413 6.38909 5.54579 6.38909 5.57329 6.40284L6.17829 6.76492C6.50829 6.96201 6.79246 7.02617 7.02163 7.02617C7.25996 7.02617 7.44329 6.95284 7.55329 6.88867C7.92454 6.67326 8.13538 6.23784 8.13538 5.69242V1.62242C8.13538 1.28784 8.48829 1.05867 8.78621 1.20534C9.61579 1.60867 10.0833 2.43826 10.0833 3.57951Z" fill="#1BB598"/>
<path d="M6.98962 0.916626C7.24171 0.916626 7.44796 1.12288 7.44796 1.37496V5.69246C7.44796 5.98579 7.36087 6.20579 7.20962 6.29288C7.05379 6.38454 6.80629 6.33871 6.53129 6.17371L5.92629 5.81163C5.69254 5.66954 5.30754 5.66954 5.07379 5.81163L4.46879 6.17371C4.19379 6.33871 3.94629 6.37996 3.79046 6.29288C3.63921 6.20579 3.55212 5.98579 3.55212 5.69246V1.37496C3.55212 1.12288 3.75837 0.916626 4.01046 0.916626H6.98962Z" fill="#1BB598"/>
</svg>
