<svg width="10" height="10" viewBox="0 0 10 10" fill="none" xmlns="http://www.w3.org/2000/svg">
<path d="M6.50375 0H2.66292C0.994583 0 0 0.994583 0 2.66292V6.49917C0 8.17208 0.994583 9.16667 2.66292 9.16667H6.49917C8.1675 9.16667 9.16209 8.17208 9.16209 6.50375V2.66292C9.16667 0.994583 8.17209 0 6.50375 0ZM7.56709 5.12875C7.56709 5.40375 7.35625 5.54125 7.10417 5.43125L5.56875 4.77125C5.39 4.69792 5.24792 4.78958 5.24792 4.98208V5.83C5.24792 5.90333 5.28917 6.00875 5.34417 6.06375L6.09583 6.82C6.17375 6.89792 6.21042 7.05375 6.17375 7.15917L6.02708 7.59917C5.96292 7.79167 5.74292 7.88333 5.56417 7.79167L4.79875 7.14083C4.67958 7.04458 4.48708 7.04458 4.3725 7.14083L3.6025 7.79167C3.41917 7.88333 3.20375 7.79167 3.13958 7.59458L2.99292 7.15458C2.95625 7.04917 2.99292 6.89333 3.07083 6.81542L3.83625 6.06375C3.88667 6.01333 3.9325 5.90792 3.9325 5.83V4.98208C3.9325 4.78958 3.78583 4.69333 3.61167 4.77125L2.07625 5.43125C1.81958 5.54125 1.61333 5.40375 1.61333 5.12875V4.7025C1.61333 4.4825 1.78292 4.22583 1.98458 4.13875L3.79042 3.35958C3.86375 3.3275 3.92792 3.23125 3.92792 3.14875V2.2C3.92792 1.88833 4.1525 1.51708 4.43208 1.37958C4.53292 1.32917 4.6475 1.32917 4.74833 1.37958C5.02333 1.52167 5.2525 1.88833 5.2525 2.2V3.14875C5.2525 3.23125 5.31208 3.3275 5.39 3.35958L7.19584 4.13875C7.40209 4.22583 7.56709 4.4825 7.56709 4.7025V5.12875Z" fill="#FE7F75"/>
</svg>
