<svg width="10" height="10" viewBox="0 0 10 10" fill="none" xmlns="http://www.w3.org/2000/svg">
<path d="M8.75 9.47913H1.25C1.07917 9.47913 0.9375 9.33746 0.9375 9.16663C0.9375 8.99579 1.07917 8.85413 1.25 8.85413H8.75C8.92083 8.85413 9.0625 8.99579 9.0625 9.16663C9.0625 9.33746 8.92083 9.47913 8.75 9.47913Z" fill="#4FBF67"/>
<path d="M2.33333 3.4917H1.66667C1.4375 3.4917 1.25 3.6792 1.25 3.90837V7.50003C1.25 7.7292 1.4375 7.9167 1.66667 7.9167H2.33333C2.5625 7.9167 2.75 7.7292 2.75 7.50003V3.90837C2.75 3.67503 2.5625 3.4917 2.33333 3.4917Z" fill="#4FBF67"/>
<path d="M5.33321 2.16248H4.66654C4.43738 2.16248 4.24988 2.34998 4.24988 2.57914V7.49998C4.24988 7.72914 4.43738 7.91664 4.66654 7.91664H5.33321C5.56238 7.91664 5.74988 7.72914 5.74988 7.49998V2.57914C5.74988 2.34998 5.56238 2.16248 5.33321 2.16248Z" fill="#4FBF67"/>
<path d="M8.3334 0.833374H7.66673C7.43756 0.833374 7.25006 1.02087 7.25006 1.25004V7.50004C7.25006 7.72921 7.43756 7.91671 7.66673 7.91671H8.3334C8.56256 7.91671 8.75006 7.72921 8.75006 7.50004V1.25004C8.75006 1.02087 8.56256 0.833374 8.3334 0.833374Z" fill="#4FBF67"/>
</svg>
