<svg width="14" height="14" viewBox="0 0 14 14" fill="none" xmlns="http://www.w3.org/2000/svg">
<path d="M7.4375 9.28665H7.81667C8.19583 9.28665 8.51083 8.94831 8.51083 8.53998C8.51083 8.03248 8.33 7.93331 8.0325 7.82831L7.44333 7.62415V9.28665H7.4375Z" fill="#FF7C50"/>
<path d="M6.98286 1.10829C3.76286 1.11995 1.15536 3.73912 1.16703 6.95912C1.1787 10.1791 3.79786 12.7866 7.01786 12.775C10.2379 12.7633 12.8454 10.1441 12.8337 6.92412C12.822 3.70412 10.2029 1.10245 6.98286 1.10829ZM8.3187 6.99995C8.7737 7.15745 9.3862 7.49579 9.3862 8.53995C9.3862 9.43829 8.68036 10.1616 7.81703 10.1616H7.43786V10.5C7.43786 10.7391 7.23953 10.9375 7.00036 10.9375C6.7612 10.9375 6.56286 10.7391 6.56286 10.5V10.1616H6.35286C5.3962 10.1616 4.62036 9.35662 4.62036 8.36495C4.62036 8.12579 4.8187 7.92745 5.05786 7.92745C5.29703 7.92745 5.49536 8.12579 5.49536 8.36495C5.49536 8.87245 5.88036 9.28662 6.35286 9.28662H6.56286V7.31495L5.68203 6.99995C5.22703 6.84245 4.61453 6.50412 4.61453 5.45995C4.61453 4.56162 5.32036 3.83829 6.1837 3.83829H6.56286V3.49995C6.56286 3.26079 6.7612 3.06245 7.00036 3.06245C7.23953 3.06245 7.43786 3.26079 7.43786 3.49995V3.83829H7.64786C8.60453 3.83829 9.38036 4.64329 9.38036 5.63495C9.38036 5.87412 9.18203 6.07245 8.94286 6.07245C8.7037 6.07245 8.50536 5.87412 8.50536 5.63495C8.50536 5.12745 8.12036 4.71329 7.64786 4.71329H7.43786V6.68495L8.3187 6.99995Z" fill="#FF7C50"/>
<path d="M5.49512 5.46588C5.49512 5.97338 5.67595 6.07255 5.97345 6.17755L6.56262 6.38171V4.71338H6.18345C5.80428 4.71338 5.49512 5.05171 5.49512 5.46588Z" fill="#FF7C50"/>
</svg>
