<svg width="12" height="12" viewBox="0 0 12 12" fill="none" xmlns="http://www.w3.org/2000/svg">
<path fill-rule="evenodd" clip-rule="evenodd" d="M6.16318 1.10483C6.24303 1.03316 6.34865 0.995593 6.45676 1.00041C8.74217 1.06883 10.6522 2.7279 10.9983 4.94531C11.0005 4.95855 11.0005 4.97206 10.9983 4.9853C11.0058 5.09021 10.9703 5.19372 10.8998 5.27292C10.8293 5.35213 10.7295 5.40049 10.6225 5.40733L6.78278 5.66055C6.6558 5.67181 6.52986 5.63002 6.43592 5.54546C6.34197 5.4609 6.28871 5.34139 6.28923 5.2163L6.03113 1.44466V1.38246C6.03583 1.27639 6.08334 1.1765 6.16318 1.10483ZM5.89983 6.64678L9.22791 6.43354L9.25055 6.44243C9.39346 6.44476 9.52957 6.50271 9.62893 6.60353C9.72828 6.70434 9.78274 6.83975 9.78032 6.97996C9.64918 8.89101 8.24808 10.4878 6.34139 10.8991C4.43469 11.3105 2.48009 10.4377 1.54389 8.75695C1.26861 8.27286 1.09465 7.7397 1.03223 7.18876C1.00802 7.02551 0.997415 6.86059 1.00053 6.69565C1.00684 4.66354 2.45364 2.90954 4.47803 2.47975C4.7231 2.43388 4.96881 2.55624 5.07573 2.7774C5.10235 2.81753 5.12365 2.86082 5.13912 2.90623C5.17707 3.49204 5.21644 4.07231 5.25564 4.65013C5.28659 5.10642 5.31744 5.56118 5.34741 6.01595C5.34586 6.12308 5.3627 6.22971 5.39722 6.33136C5.47847 6.53137 5.68068 6.65827 5.89983 6.64678Z" fill="#5243AA"/>
</svg>
