<svg width="14" height="14" viewBox="0 0 14 14" fill="none" xmlns="http://www.w3.org/2000/svg">
<path d="M6.96487 1.28915L5.55904 4.56165H4.1532C3.91987 4.56165 3.69237 4.57915 3.4707 4.62582L4.05404 3.22582L4.07737 3.17332L4.11237 3.07998C4.12987 3.03915 4.14154 3.00415 4.15904 2.97498C4.8357 1.40582 5.59404 0.915816 6.96487 1.28915Z" fill="#1DBF73"/>
<path d="M10.9261 4.71914L10.9145 4.7133C10.5645 4.61414 10.2086 4.56164 9.84698 4.56164H6.19531L7.50781 1.5108L7.52531 1.46997C7.60698 1.49914 7.69448 1.53997 7.78198 1.56914L9.07115 2.11164C9.78865 2.40914 10.2903 2.7183 10.5995 3.09164C10.652 3.16164 10.6986 3.2258 10.7453 3.30164C10.7978 3.3833 10.8386 3.46497 10.862 3.55247C10.8853 3.60497 10.9028 3.65164 10.9145 3.70414C11.002 4.00164 11.0078 4.33997 10.9261 4.71914Z" fill="#1DBF73"/>
<path d="M7.30371 10.3017H7.44954C7.62454 10.3017 7.77038 10.1442 7.77038 9.95171C7.77038 9.70671 7.70038 9.67171 7.54871 9.61338L7.30371 9.52588V10.3017Z" fill="#1DBF73"/>
<path d="M10.6691 5.55331C10.4066 5.47748 10.1325 5.43665 9.84664 5.43665H4.15331C3.75664 5.43665 3.38331 5.51248 3.03331 5.66415C2.01831 6.10165 1.30664 7.11081 1.30664 8.28331V9.42081C1.30664 9.56081 1.31831 9.69498 1.33581 9.83498C1.46414 11.69 2.45581 12.6816 4.31081 12.8041C4.44497 12.8216 4.57914 12.8333 4.72497 12.8333H9.27497C11.4333 12.8333 12.5708 11.8066 12.6816 9.76498C12.6875 9.65415 12.6933 9.53748 12.6933 9.42081V8.28331C12.6933 6.99415 11.8358 5.90915 10.6691 5.55331ZM7.74664 9.04165C8.01497 9.13498 8.37664 9.33331 8.37664 9.95165C8.37664 10.4825 7.96247 10.9083 7.44914 10.9083H7.30331V11.0366C7.30331 11.2058 7.16914 11.34 6.99997 11.34C6.83081 11.34 6.69664 11.2058 6.69664 11.0366V10.9083H6.64414C6.08414 10.9083 5.62331 10.4358 5.62331 9.85248C5.62331 9.68331 5.75747 9.54915 5.92664 9.54915C6.09581 9.54915 6.22997 9.68331 6.22997 9.85248C6.22997 10.0975 6.41664 10.3016 6.64414 10.3016H6.69664V9.31581L6.25331 9.15831C5.98497 9.06498 5.62331 8.86665 5.62331 8.24831C5.62331 7.71748 6.03747 7.29165 6.55081 7.29165H6.69664V7.16331C6.69664 6.99415 6.83081 6.85998 6.99997 6.85998C7.16914 6.85998 7.30331 6.99415 7.30331 7.16331V7.29165H7.35581C7.91581 7.29165 8.37664 7.76415 8.37664 8.34748C8.37664 8.51665 8.24247 8.65081 8.07331 8.65081C7.90414 8.65081 7.76997 8.51665 7.76997 8.34748C7.76997 8.10248 7.58331 7.89831 7.35581 7.89831H7.30331V8.88415L7.74664 9.04165Z" fill="#1DBF73"/>
<path d="M6.23047 8.24832C6.23047 8.49332 6.30047 8.52832 6.45214 8.58665L6.69713 8.67415V7.89832H6.5513C6.37047 7.89832 6.23047 8.05582 6.23047 8.24832Z" fill="#1DBF73"/>
</svg>
