<svg width="24" height="25" viewBox="0 0 24 25" fill="none" xmlns="http://www.w3.org/2000/svg">
<path d="M9.86 19.5L11.54 18.08C11.79 17.87 12.21 17.87 12.47 18.08L14.14 19.5C14.53 19.7 15.01 19.5 15.15 19.08L15.47 18.12C15.55 17.89 15.47 17.55 15.3 17.38L13.66 15.73C13.54 15.61 13.45 15.38 13.45 15.22V13.37C13.45 12.95 13.76 12.75 14.15 12.91L17.5 14.35C18.05 14.59 18.51 14.29 18.51 13.69V12.76C18.51 12.28 18.15 11.72 17.7 11.53L13.76 9.82999C13.59 9.75999 13.46 9.54999 13.46 9.36999V7.29999C13.46 6.61999 12.96 5.81999 12.36 5.50999C12.14 5.39999 11.89 5.39999 11.67 5.50999C11.06 5.80999 10.57 6.61999 10.57 7.29999V9.36999C10.57 9.54999 10.43 9.75999 10.27 9.82999L6.33 11.53C5.89 11.72 5.52 12.28 5.52 12.76V13.69C5.52 14.29 5.97 14.59 6.53 14.35L9.88 12.91C10.26 12.74 10.58 12.95 10.58 13.37V15.22C10.58 15.39 10.48 15.62 10.37 15.73L8.7 17.37C8.53 17.54 8.45 17.88 8.53 18.11L8.85 19.07C8.99 19.5 9.46 19.7 9.86 19.5Z" stroke="#808191" stroke-width="1.5" stroke-linecap="round" stroke-linejoin="round"/>
<path d="M9 22.5H15C20 22.5 22 20.5 22 15.5V9.5C22 4.5 20 2.5 15 2.5H9C4 2.5 2 4.5 2 9.5V15.5C2 20.5 4 22.5 9 22.5Z" stroke="#808191" stroke-width="1.5" stroke-linecap="round" stroke-linejoin="round"/>
</svg>
