<svg width="24" height="25" viewBox="0 0 24 25" fill="none" xmlns="http://www.w3.org/2000/svg">
<g id="Iconly/Light-Outline/Category">
<g id="Category">
<path id="Fill 1" fill-rule="evenodd" clip-rule="evenodd" d="M6.25 4C3.5 4 3.5 4.208 3.5 6.75V6.775C3.5 7.882 3.5 8.682 3.771 9.02C4.036 9.348 4.823 9.5 6.25 9.5C7.677 9.5 8.464 9.347 8.729 9.019C9 8.682 9 7.882 9 6.774C9 4.208 9 4 6.25 4ZM6.25 11C4.564 11 3.299 10.823 2.604 9.96C2 9.211 2 8.189 2 6.775L2.75 6.75H2C2 3.88 2.181 2.5 6.25 2.5C10.319 2.5 10.5 3.88 10.5 6.75C10.5 8.188 10.5 9.211 9.896 9.96C9.201 10.823 7.936 11 6.25 11Z" fill="#808191"/>
<path id="Fill 3" fill-rule="evenodd" clip-rule="evenodd" d="M17.25 4C14.5 4 14.5 4.208 14.5 6.75V6.775C14.5 7.882 14.5 8.682 14.771 9.02C15.036 9.348 15.823 9.5 17.25 9.5C18.677 9.5 19.464 9.347 19.729 9.019C20 8.682 20 7.882 20 6.774C20 4.208 20 4 17.25 4ZM17.25 11C15.564 11 14.299 10.823 13.604 9.96C13 9.211 13 8.189 13 6.775L13.75 6.75H13C13 3.88 13.181 2.5 17.25 2.5C21.319 2.5 21.5 3.88 21.5 6.75C21.5 8.188 21.5 9.211 20.896 9.96C20.201 10.823 18.936 11 17.25 11Z" fill="#808191"/>
<path id="Fill 5" fill-rule="evenodd" clip-rule="evenodd" d="M6.25 15C3.5 15 3.5 15.208 3.5 17.75V17.775C3.5 18.882 3.5 19.682 3.771 20.02C4.036 20.348 4.823 20.5 6.25 20.5C7.677 20.5 8.464 20.347 8.729 20.019C9 19.682 9 18.882 9 17.774C9 15.208 9 15 6.25 15ZM6.25 22C4.564 22 3.299 21.823 2.604 20.96C2 20.211 2 19.189 2 17.775L2.75 17.75H2C2 14.88 2.181 13.5 6.25 13.5C10.319 13.5 10.5 14.88 10.5 17.75C10.5 19.188 10.5 20.211 9.896 20.96C9.201 21.823 7.936 22 6.25 22Z" fill="#808191"/>
<path id="Fill 7" fill-rule="evenodd" clip-rule="evenodd" d="M17.25 15C14.5 15 14.5 15.208 14.5 17.75V17.775C14.5 18.882 14.5 19.682 14.771 20.02C15.036 20.348 15.823 20.5 17.25 20.5C18.677 20.5 19.464 20.347 19.729 20.019C20 19.682 20 18.882 20 17.774C20 15.208 20 15 17.25 15ZM17.25 22C15.564 22 14.299 21.823 13.604 20.96C13 20.211 13 19.189 13 17.775L13.75 17.75H13C13 14.88 13.181 13.5 17.25 13.5C21.319 13.5 21.5 14.88 21.5 17.75C21.5 19.188 21.5 20.211 20.896 20.96C20.201 21.823 18.936 22 17.25 22Z" fill="#808191"/>
</g>
</g>
</svg>
