<svg width="24" height="25" viewBox="0 0 24 25" fill="none" xmlns="http://www.w3.org/2000/svg">
<path opacity="0.3" fill-rule="evenodd" clip-rule="evenodd" d="M2.56068 11.1818C1.97489 11.7675 1.97489 12.7173 2.56068 13.3031L4.682 15.4244C5.26778 16.0102 6.21753 16.0102 6.80332 15.4244L8.92464 13.3031C9.51043 12.7173 9.51043 11.7675 8.92464 11.1818L6.80332 9.06043C6.21753 8.47465 5.26778 8.47465 4.682 9.06043L2.56068 11.1818ZM14.5607 11.1818C13.9749 11.7675 13.9749 12.7173 14.5607 13.3031L16.682 15.4244C17.2678 16.0102 18.2175 16.0102 18.8033 15.4244L20.9246 13.3031C21.5104 12.7173 21.5104 11.7675 20.9246 11.1818L18.8033 9.06043C18.2175 8.47465 17.2678 8.47465 16.682 9.06043L14.5607 11.1818Z" fill="#808191"/>
<path fill-rule="evenodd" clip-rule="evenodd" d="M8.56068 5.18175C7.97489 5.76754 7.97489 6.71729 8.56068 7.30307L10.682 9.42439C11.2678 10.0102 12.2175 10.0102 12.8033 9.42439L14.9246 7.30307C15.5104 6.71729 15.5104 5.76754 14.9246 5.18175L12.8033 3.06043C12.2175 2.47465 11.2678 2.47465 10.682 3.06043L8.56068 5.18175ZM8.56068 17.1818C7.97489 17.7675 7.97489 18.7173 8.56068 19.3031L10.682 21.4244C11.2678 22.0102 12.2175 22.0102 12.8033 21.4244L14.9246 19.3031C15.5104 18.7173 15.5104 17.7675 14.9246 17.1818L12.8033 15.0604C12.2175 14.4746 11.2678 14.4746 10.682 15.0604L8.56068 17.1818Z" fill="#808191"/>
</svg>
