<svg width="24" height="25" viewBox="0 0 24 25" fill="none" xmlns="http://www.w3.org/2000/svg">
<path d="M9.02539 1.5C8.47718 1.5 7.98693 1.75517 7.63086 2.08008C7.27478 2.40499 7.01163 2.80492 6.78711 3.25977C6.41951 4.00448 6.16405 4.91728 6.00391 5.94141L3.3125 6.74023L1.33008 21.1016L14.5078 23.5176L14.6934 23.4805L22.6836 21.9121L20.0898 5.09961L15.3867 3.16016L14.3809 3.45898C14.2193 3.13747 14.0386 2.83832 13.8281 2.57422C13.3564 1.98232 12.6756 1.5 11.8535 1.5C11.2767 1.5 10.8054 1.77245 10.3906 2.11914C10.0172 1.77711 9.58365 1.5 9.02539 1.5ZM9.02539 3.5C8.96089 3.5 9.04769 3.47429 9.25586 3.77148C9.41118 3.99323 9.57787 4.38375 9.73047 4.83789L8.16992 5.30078C8.28956 4.83898 8.43168 4.44516 8.58008 4.14453C8.72769 3.8455 8.88256 3.6442 8.97852 3.55664C9.07447 3.46908 9.0686 3.5 9.02539 3.5ZM11.8535 3.5C11.8955 3.5 12.0257 3.52171 12.2637 3.82031C12.3076 3.87537 12.3531 3.97638 12.3984 4.04688L11.6133 4.2793C11.546 4.14289 11.4779 4.00947 11.4199 3.86133C11.6563 3.5587 11.811 3.5 11.8535 3.5ZM14.5312 5.5L13.5703 21.3125L3.57422 19.4805L5.11719 8.29102L14.5312 5.5ZM16.5176 5.78906L18.2852 6.51758L20.4141 20.3203L15.5781 21.2695L16.5176 5.78906ZM10.3906 9.50391C8.01662 9.50391 6.8457 11.1058 6.8457 12.7598C6.8457 14.7358 8.77734 14.7864 8.77734 15.9824C8.77734 16.2734 8.57136 16.6699 8.06836 16.6699C7.30736 16.6699 6.4043 15.8789 6.4043 15.8789L5.94141 17.418C5.94141 17.418 6.80525 18.5 8.53125 18.5C9.96025 18.5 11.0176 17.4079 11.0176 15.7129C11.0176 13.5609 8.6543 13.208 8.6543 12.293C8.6543 12.127 8.70762 11.4492 9.76562 11.4492C10.4746 11.4492 11.0703 11.7715 11.0703 11.7715L11.7285 9.76562C11.7285 9.76562 11.2756 9.49391 10.3906 9.50391Z" fill="#808191"/>
</svg>
