<svg width="20" height="21" viewBox="0 0 20 21" fill="none" xmlns="http://www.w3.org/2000/svg">
<path d="M15.8333 6.33329V8.82496C15.8333 8.82496 14.175 8.83329 14.1667 8.82496V6.33329H11.6667C11.6667 6.33329 11.675 4.67496 11.6667 4.66663H14.1667V2.16663H15.8333V4.66663H18.3333V6.33329H15.8333ZM13.3333 9.66663V7.16663H10.8333V4.66663H4.16667C3.25 4.66663 2.5 5.41663 2.5 6.33329V16.3333C2.5 17.25 3.25 18 4.16667 18H14.1667C15.0833 18 15.8333 17.25 15.8333 16.3333V9.66663H13.3333ZM4.16667 16.3333L6.66667 13L8.33333 15.5L10.8333 12.1666L14.1667 16.3333H4.16667Z" fill="#5542F6"/>
</svg>
