<svg width="25" height="24" viewBox="0 0 25 24" fill="none" xmlns="http://www.w3.org/2000/svg">
<path fill-rule="evenodd" clip-rule="evenodd" d="M6.56662 3.87433C5.86393 3.7958 5.13594 3.7958 4.43325 3.87433C4.4202 3.87579 4.40729 3.8817 4.39668 3.89216C4.38631 3.90238 4.38227 3.9127 4.38124 3.92147C4.2974 4.63834 4.2974 5.36254 4.38124 6.07942C4.38227 6.08818 4.38631 6.09851 4.39668 6.10873C4.40729 6.11919 4.4202 6.1251 4.43325 6.12656C5.13594 6.20509 5.86393 6.20509 6.56662 6.12656C6.57967 6.1251 6.59258 6.11919 6.60319 6.10873C6.61356 6.09851 6.6176 6.08818 6.61863 6.07942C6.70247 5.36254 6.70247 4.63834 6.61863 3.92147C6.6176 3.9127 6.61356 3.90238 6.60319 3.89216C6.59258 3.8817 6.57967 3.87579 6.56662 3.87433ZM4.26664 2.38361C5.08006 2.2927 5.91981 2.2927 6.73323 2.38361C7.44555 2.46323 8.02384 3.02366 8.10847 3.74722C8.20586 4.57987 8.20586 5.42102 8.10847 6.25367C8.02384 6.97723 7.44555 7.53766 6.73323 7.61728C5.91981 7.70819 5.08006 7.70819 4.26664 7.61728C3.55432 7.53766 2.97603 6.97723 2.8914 6.25367C2.79401 5.42102 2.79401 4.57987 2.8914 3.74722C2.97603 3.02366 3.55432 2.46323 4.26664 2.38361Z" fill="#55B4E4"/>
<path fill-rule="evenodd" clip-rule="evenodd" d="M13.5666 3.87433C12.8639 3.7958 12.1359 3.7958 11.4333 3.87433C11.4202 3.87579 11.4073 3.8817 11.3967 3.89216C11.3863 3.90238 11.3823 3.9127 11.3812 3.92147C11.2974 4.63834 11.2974 5.36254 11.3812 6.07942C11.3823 6.08818 11.3863 6.09851 11.3967 6.10873C11.4073 6.11919 11.4202 6.1251 11.4333 6.12656C12.1359 6.20509 12.8639 6.20509 13.5666 6.12656C13.5797 6.1251 13.5926 6.11919 13.6032 6.10873C13.6136 6.09851 13.6176 6.08818 13.6186 6.07942C13.7025 5.36254 13.7025 4.63834 13.6186 3.92147C13.6176 3.9127 13.6136 3.90238 13.6032 3.89216C13.5926 3.8817 13.5797 3.87579 13.5666 3.87433ZM11.2666 2.38361C12.0801 2.2927 12.9198 2.2927 13.7332 2.38361C14.4456 2.46323 15.0238 3.02366 15.1085 3.74722C15.2059 4.57987 15.2059 5.42102 15.1085 6.25367C15.0238 6.97723 14.4456 7.53766 13.7332 7.61728C12.9198 7.70819 12.0801 7.70819 11.2666 7.61728C10.5543 7.53766 9.97603 6.97723 9.8914 6.25367C9.79401 5.42102 9.79401 4.57987 9.8914 3.74722C9.97603 3.02366 10.5543 2.46323 11.2666 2.38361Z" fill="#55B4E4"/>
<path fill-rule="evenodd" clip-rule="evenodd" d="M20.5666 3.87433C19.8639 3.7958 19.1359 3.7958 18.4333 3.87433C18.4202 3.87579 18.4073 3.8817 18.3967 3.89216C18.3863 3.90238 18.3823 3.9127 18.3812 3.92147C18.2974 4.63834 18.2974 5.36254 18.3812 6.07942C18.3823 6.08818 18.3863 6.09851 18.3967 6.10873C18.4073 6.11919 18.4202 6.1251 18.4333 6.12656C19.1359 6.20509 19.8639 6.20509 20.5666 6.12656C20.5797 6.1251 20.5926 6.11919 20.6032 6.10873C20.6136 6.09851 20.6176 6.08818 20.6186 6.07942C20.7025 5.36254 20.7025 4.63834 20.6186 3.92147C20.6176 3.9127 20.6136 3.90238 20.6032 3.89216C20.5926 3.8817 20.5797 3.87579 20.5666 3.87433ZM18.2666 2.38361C19.0801 2.2927 19.9198 2.2927 20.7332 2.38361C21.4456 2.46323 22.0238 3.02366 22.1085 3.74722C22.2059 4.57987 22.2059 5.42102 22.1085 6.25367C22.0238 6.97723 21.4456 7.53766 20.7332 7.61728C19.9198 7.70819 19.0801 7.70819 18.2666 7.61728C17.5543 7.53766 16.976 6.97723 16.8914 6.25367C16.794 5.42102 16.794 4.57987 16.8914 3.74722C16.976 3.02366 17.5543 2.46323 18.2666 2.38361Z" fill="#55B4E4"/>
<path fill-rule="evenodd" clip-rule="evenodd" d="M6.56662 10.8743C5.86393 10.7958 5.13594 10.7958 4.43325 10.8743C4.4202 10.8758 4.40729 10.8817 4.39668 10.8922C4.38631 10.9024 4.38227 10.9127 4.38124 10.9215C4.2974 11.6383 4.2974 12.3625 4.38124 13.0794C4.38227 13.0882 4.38631 13.0985 4.39668 13.1087C4.40729 13.1192 4.4202 13.1251 4.43325 13.1266C5.13594 13.2051 5.86393 13.2051 6.56662 13.1266C6.57967 13.1251 6.59258 13.1192 6.60319 13.1087C6.61356 13.0985 6.6176 13.0882 6.61863 13.0794C6.70247 12.3625 6.70247 11.6383 6.61863 10.9215C6.6176 10.9127 6.61356 10.9024 6.60319 10.8922C6.59258 10.8817 6.57967 10.8758 6.56662 10.8743ZM4.26664 9.38361C5.08006 9.2927 5.91981 9.2927 6.73323 9.38361C7.44555 9.46323 8.02384 10.0237 8.10847 10.7472C8.20586 11.5799 8.20586 12.421 8.10847 13.2537C8.02384 13.9772 7.44555 14.5377 6.73323 14.6173C5.91981 14.7082 5.08006 14.7082 4.26664 14.6173C3.55432 14.5377 2.97603 13.9772 2.8914 13.2537C2.79401 12.421 2.79401 11.5799 2.8914 10.7472C2.97603 10.0237 3.55432 9.46323 4.26664 9.38361Z" fill="#55B4E4"/>
<path fill-rule="evenodd" clip-rule="evenodd" d="M13.5666 10.8743C12.8639 10.7958 12.1359 10.7958 11.4333 10.8743C11.4202 10.8758 11.4073 10.8817 11.3967 10.8922C11.3863 10.9024 11.3823 10.9127 11.3812 10.9215C11.2974 11.6383 11.2974 12.3625 11.3812 13.0794C11.3823 13.0882 11.3863 13.0985 11.3967 13.1087C11.4073 13.1192 11.4202 13.1251 11.4333 13.1266C12.1359 13.2051 12.8639 13.2051 13.5666 13.1266C13.5797 13.1251 13.5926 13.1192 13.6032 13.1087C13.6136 13.0985 13.6176 13.0882 13.6186 13.0794C13.7025 12.3625 13.7025 11.6383 13.6186 10.9215C13.6176 10.9127 13.6136 10.9024 13.6032 10.8922C13.5926 10.8817 13.5797 10.8758 13.5666 10.8743ZM11.2666 9.38361C12.0801 9.2927 12.9198 9.2927 13.7332 9.38361C14.4456 9.46323 15.0238 10.0237 15.1085 10.7472C15.2059 11.5799 15.2059 12.421 15.1085 13.2537C15.0238 13.9772 14.4456 14.5377 13.7332 14.6173C12.9198 14.7082 12.0801 14.7082 11.2666 14.6173C10.5543 14.5377 9.97603 13.9772 9.8914 13.2537C9.79401 12.421 9.79401 11.5799 9.8914 10.7472C9.97603 10.0237 10.5543 9.46323 11.2666 9.38361Z" fill="#55B4E4"/>
<path fill-rule="evenodd" clip-rule="evenodd" d="M20.5666 10.8743C19.8639 10.7958 19.1359 10.7958 18.4333 10.8743C18.4202 10.8758 18.4073 10.8817 18.3967 10.8922C18.3863 10.9024 18.3823 10.9127 18.3812 10.9215C18.2974 11.6383 18.2974 12.3625 18.3812 13.0794C18.3823 13.0882 18.3863 13.0985 18.3967 13.1087C18.4073 13.1192 18.4202 13.1251 18.4333 13.1266C19.1359 13.2051 19.8639 13.2051 20.5666 13.1266C20.5797 13.1251 20.5926 13.1192 20.6032 13.1087C20.6136 13.0985 20.6176 13.0882 20.6186 13.0794C20.7025 12.3625 20.7025 11.6383 20.6186 10.9215C20.6176 10.9127 20.6136 10.9024 20.6032 10.8922C20.5926 10.8817 20.5797 10.8758 20.5666 10.8743ZM18.2666 9.38361C19.0801 9.2927 19.9198 9.2927 20.7332 9.38361C21.4456 9.46323 22.0238 10.0237 22.1085 10.7472C22.2059 11.5799 22.2059 12.421 22.1085 13.2537C22.0238 13.9772 21.4456 14.5377 20.7332 14.6173C19.9198 14.7082 19.0801 14.7082 18.2666 14.6173C17.5543 14.5377 16.976 13.9772 16.8914 13.2537C16.794 12.421 16.794 11.5799 16.8914 10.7472C16.976 10.0237 17.5543 9.46323 18.2666 9.38361Z" fill="#55B4E4"/>
<path fill-rule="evenodd" clip-rule="evenodd" d="M6.56662 17.8743C5.86393 17.7958 5.13594 17.7958 4.43325 17.8743C4.4202 17.8758 4.40729 17.8817 4.39668 17.8922C4.38631 17.9024 4.38227 17.9127 4.38124 17.9215C4.2974 18.6383 4.2974 19.3625 4.38124 20.0794C4.38227 20.0882 4.38631 20.0985 4.39668 20.1087C4.40729 20.1192 4.4202 20.1251 4.43325 20.1266C5.13594 20.2051 5.86393 20.2051 6.56662 20.1266C6.57967 20.1251 6.59258 20.1192 6.60319 20.1087C6.61356 20.0985 6.6176 20.0882 6.61863 20.0794C6.70247 19.3625 6.70247 18.6383 6.61863 17.9215C6.6176 17.9127 6.61356 17.9024 6.60319 17.8922C6.59258 17.8817 6.57967 17.8758 6.56662 17.8743ZM4.26664 16.3836C5.08006 16.2927 5.91981 16.2927 6.73323 16.3836C7.44555 16.4632 8.02384 17.0237 8.10847 17.7472C8.20586 18.5799 8.20586 19.421 8.10847 20.2537C8.02384 20.9772 7.44555 21.5377 6.73323 21.6173C5.91981 21.7082 5.08006 21.7082 4.26664 21.6173C3.55432 21.5377 2.97603 20.9772 2.8914 20.2537C2.79401 19.421 2.79401 18.5799 2.8914 17.7472C2.97603 17.0237 3.55432 16.4632 4.26664 16.3836Z" fill="#55B4E4"/>
<path fill-rule="evenodd" clip-rule="evenodd" d="M13.5666 17.8743C12.8639 17.7958 12.1359 17.7958 11.4333 17.8743C11.4202 17.8758 11.4073 17.8817 11.3967 17.8922C11.3863 17.9024 11.3823 17.9127 11.3812 17.9215C11.2974 18.6383 11.2974 19.3625 11.3812 20.0794C11.3823 20.0882 11.3863 20.0985 11.3967 20.1087C11.4073 20.1192 11.4202 20.1251 11.4333 20.1266C12.1359 20.2051 12.8639 20.2051 13.5666 20.1266C13.5797 20.1251 13.5926 20.1192 13.6032 20.1087C13.6136 20.0985 13.6176 20.0882 13.6186 20.0794C13.7025 19.3625 13.7025 18.6383 13.6186 17.9215C13.6176 17.9127 13.6136 17.9024 13.6032 17.8922C13.5926 17.8817 13.5797 17.8758 13.5666 17.8743ZM11.2666 16.3836C12.0801 16.2927 12.9198 16.2927 13.7332 16.3836C14.4456 16.4632 15.0238 17.0237 15.1085 17.7472C15.2059 18.5799 15.2059 19.421 15.1085 20.2537C15.0238 20.9772 14.4456 21.5377 13.7332 21.6173C12.9198 21.7082 12.0801 21.7082 11.2666 21.6173C10.5543 21.5377 9.97603 20.9772 9.8914 20.2537C9.79401 19.421 9.79401 18.5799 9.8914 17.7472C9.97603 17.0237 10.5543 16.4632 11.2666 16.3836Z" fill="#55B4E4"/>
<path fill-rule="evenodd" clip-rule="evenodd" d="M20.5666 17.8743C19.8639 17.7958 19.1359 17.7958 18.4333 17.8743C18.4202 17.8758 18.4073 17.8817 18.3967 17.8922C18.3863 17.9024 18.3823 17.9127 18.3812 17.9215C18.2974 18.6383 18.2974 19.3625 18.3812 20.0794C18.3823 20.0882 18.3863 20.0985 18.3967 20.1087C18.4073 20.1192 18.4202 20.1251 18.4333 20.1266C19.1359 20.2051 19.8639 20.2051 20.5666 20.1266C20.5797 20.1251 20.5926 20.1192 20.6032 20.1087C20.6136 20.0985 20.6176 20.0882 20.6186 20.0794C20.7025 19.3625 20.7025 18.6383 20.6186 17.9215C20.6176 17.9127 20.6136 17.9024 20.6032 17.8922C20.5926 17.8817 20.5797 17.8758 20.5666 17.8743ZM18.2666 16.3836C19.0801 16.2927 19.9198 16.2927 20.7332 16.3836C21.4456 16.4632 22.0238 17.0237 22.1085 17.7472C22.2059 18.5799 22.2059 19.421 22.1085 20.2537C22.0238 20.9772 21.4456 21.5377 20.7332 21.6173C19.9198 21.7082 19.0801 21.7082 18.2666 21.6173C17.5543 21.5377 16.976 20.9772 16.8914 20.2537C16.794 19.421 16.794 18.5799 16.8914 17.7472C16.976 17.0237 17.5543 16.4632 18.2666 16.3836Z" fill="#55B4E4"/>
</svg>
