<svg width="20" height="20" viewBox="0 0 20 20" fill="none" xmlns="http://www.w3.org/2000/svg">
<path fill-rule="evenodd" clip-rule="evenodd" d="M14.1086 5.83317C14.1351 5.77411 14.1475 5.70974 14.1449 5.64511H14.1667C14.0735 3.42143 12.2374 1.6665 10.0041 1.6665C7.77083 1.6665 5.93477 3.42143 5.84157 5.64511C5.83059 5.70732 5.83059 5.77096 5.84157 5.83317H5.77643C4.70851 5.83317 3.56695 6.53814 3.23553 8.43323L2.58742 13.5955C2.05715 17.3856 4.00885 18.3332 6.55711 18.3332H13.4654C16.0063 18.3332 17.8991 16.9611 17.4277 13.5955L16.787 8.43323C16.3966 6.59121 15.2919 5.83317 14.2387 5.83317H14.1086ZM12.911 5.83317C12.8878 5.77312 12.8755 5.70944 12.8747 5.64511C12.8747 4.04719 11.5749 2.75182 9.97146 2.75182C8.36803 2.75182 7.0682 4.04719 7.0682 5.64511C7.07919 5.70732 7.07919 5.77096 7.0682 5.83317H12.911ZM7.58083 10.1236C7.17408 10.1236 6.84434 9.78426 6.84434 9.36561C6.84434 8.94696 7.17408 8.60758 7.58083 8.60758C7.98758 8.60758 8.31732 8.94696 8.31732 9.36561C8.31732 9.78426 7.98758 10.1236 7.58083 10.1236ZM11.6684 9.36561C11.6684 9.78426 11.9981 10.1236 12.4048 10.1236C12.8116 10.1236 13.1413 9.78426 13.1413 9.36561C13.1413 8.94696 12.8116 8.60758 12.4048 8.60758C11.9981 8.60758 11.6684 8.94696 11.6684 9.36561Z" fill="white"/>
</svg>
