<svg width="16" height="16" viewBox="0 0 16 16" fill="none" xmlns="http://www.w3.org/2000/svg">
<path d="M6.5 13.3335C6.5 14.1619 7.17157 14.8335 8 14.8335C8.82843 14.8335 9.5 14.1619 9.5 13.3335C9.5 12.5051 8.82843 11.8335 8 11.8335C7.17157 11.8335 6.5 12.5051 6.5 13.3335Z" fill="#292D32"/>
<path d="M11.833 13.3335C11.833 14.1619 12.5046 14.8335 13.333 14.8335C14.1614 14.8335 14.833 14.1619 14.833 13.3335C14.833 12.5051 14.1614 11.8335 13.333 11.8335C12.5046 11.8335 11.833 12.5051 11.833 13.3335Z" fill="#292D32"/>
<path d="M1.16699 13.3335C1.16699 14.1619 1.83856 14.8335 2.66699 14.8335C3.49542 14.8335 4.16699 14.1619 4.16699 13.3335C4.16699 12.5051 3.49542 11.8335 2.66699 11.8335C1.83856 11.8335 1.16699 12.5051 1.16699 13.3335Z" fill="#292D32"/>
<path d="M6.5 2.6665C6.5 3.49493 7.17157 4.1665 8 4.1665C8.82843 4.1665 9.5 3.49493 9.5 2.6665C9.5 1.83808 8.82843 1.1665 8 1.1665C7.17157 1.1665 6.5 1.83808 6.5 2.6665Z" fill="#292D32"/>
<path d="M7.49967 12.6668C7.49967 12.9402 7.72634 13.1668 7.99967 13.1668C8.27301 13.1668 8.49967 12.9402 8.49967 12.6668L8.49967 7.8335L11.333 7.8335C12.3863 7.8335 12.833 8.28016 12.833 9.3335L12.833 12.6668C12.833 12.9402 13.0597 13.1668 13.333 13.1668C13.6063 13.1668 13.833 12.9402 13.833 12.6668L13.833 9.3335C13.833 7.72016 12.9463 6.8335 11.333 6.8335L8.49967 6.8335L8.49967 3.3335C8.49967 3.06016 8.27301 2.8335 7.99967 2.8335C7.72634 2.8335 7.49967 3.06016 7.49967 3.3335L7.49967 6.8335L4.66634 6.8335C3.05301 6.8335 2.16634 7.72016 2.16634 9.3335L2.16634 12.6668C2.16634 12.9402 2.39301 13.1668 2.66634 13.1668C2.93967 13.1668 3.16634 12.9402 3.16634 12.6668L3.16634 9.3335C3.16634 8.28016 3.61301 7.8335 4.66634 7.8335L7.49967 7.8335L7.49967 12.6668Z" fill="#292D32"/>
</svg>
