<svg width="32" height="32" viewBox="0 0 32 32" fill="none" xmlns="http://www.w3.org/2000/svg">
<path d="M21.4213 11.9932C21.8119 11.6027 21.8119 10.9696 21.4213 10.579C21.0308 10.1885 20.3976 10.1885 20.0071 10.579L16.0002 14.586L11.9933 10.579C11.6027 10.1885 10.9696 10.1885 10.579 10.579C10.1885 10.9696 10.1885 11.6027 10.579 11.9932L14.586 16.0002L10.579 20.0071C10.1885 20.3976 10.1885 21.0308 10.579 21.4213C10.9696 21.8119 11.6027 21.8119 11.9932 21.4213L16.0002 17.4144L20.0071 21.4213C20.3977 21.8119 21.0308 21.8119 21.4213 21.4213C21.8119 21.0308 21.8119 20.3976 21.4213 20.0071L17.4144 16.0002L21.4213 11.9932Z" fill="black"/>
</svg>
