<svg width="19" height="18" viewBox="0 0 19 18" fill="none" xmlns="http://www.w3.org/2000/svg">
<path d="M15.4167 5.125V7.74125C15.4167 7.74125 13.5925 7.75 13.5833 7.74125V5.125H10.8333C10.8333 5.125 10.8425 3.38375 10.8333 3.375H13.5833V0.75H15.4167V3.375H18.1667V5.125H15.4167ZM12.6667 8.625V6H9.91667V3.375H2.58333C1.575 3.375 0.75 4.1625 0.75 5.125V15.625C0.75 16.5875 1.575 17.375 2.58333 17.375H13.5833C14.5917 17.375 15.4167 16.5875 15.4167 15.625V8.625H12.6667ZM2.58333 15.625L5.33333 12.125L7.16667 14.75L9.91667 11.25L13.5833 15.625H2.58333Z" fill="#5542F6"/>
</svg>
