<svg width="16" height="16" viewBox="0 0 16 16" fill="none" xmlns="http://www.w3.org/2000/svg">
<path d="M5.33317 13.9998H2.6665C2.48969 13.9998 2.32012 13.9296 2.1951 13.8046C2.07008 13.6796 1.99984 13.51 1.99984 13.3332V10.6665C1.99984 10.4897 1.9296 10.3201 1.80458 10.1951C1.67955 10.0701 1.50998 9.99984 1.33317 9.99984C1.15636 9.99984 0.98679 10.0701 0.861766 10.1951C0.736742 10.3201 0.666504 10.4897 0.666504 10.6665V13.3332C0.666504 13.8636 0.877218 14.3723 1.25229 14.7474C1.62736 15.1225 2.13607 15.3332 2.6665 15.3332H5.33317C5.50998 15.3332 5.67955 15.2629 5.80458 15.1379C5.9296 15.0129 5.99984 14.8433 5.99984 14.6665C5.99984 14.4897 5.9296 14.3201 5.80458 14.1951C5.67955 14.0701 5.50998 13.9998 5.33317 13.9998V13.9998ZM14.6665 9.99984C14.4897 9.99984 14.3201 10.0701 14.1951 10.1951C14.0701 10.3201 13.9998 10.4897 13.9998 10.6665V13.3332C13.9998 13.51 13.9296 13.6796 13.8046 13.8046C13.6796 13.9296 13.51 13.9998 13.3332 13.9998H10.6665C10.4897 13.9998 10.3201 14.0701 10.1951 14.1951C10.0701 14.3201 9.99984 14.4897 9.99984 14.6665C9.99984 14.8433 10.0701 15.0129 10.1951 15.1379C10.3201 15.2629 10.4897 15.3332 10.6665 15.3332H13.3332C13.8636 15.3332 14.3723 15.1225 14.7474 14.7474C15.1225 14.3723 15.3332 13.8636 15.3332 13.3332V10.6665C15.3332 10.4897 15.2629 10.3201 15.1379 10.1951C15.0129 10.0701 14.8433 9.99984 14.6665 9.99984ZM13.3332 0.666504H10.6665C10.4897 0.666504 10.3201 0.736742 10.1951 0.861766C10.0701 0.98679 9.99984 1.15636 9.99984 1.33317C9.99984 1.50998 10.0701 1.67955 10.1951 1.80458C10.3201 1.9296 10.4897 1.99984 10.6665 1.99984H13.3332C13.51 1.99984 13.6796 2.07008 13.8046 2.1951C13.9296 2.32012 13.9998 2.48969 13.9998 2.6665V5.33317C13.9998 5.50998 14.0701 5.67955 14.1951 5.80458C14.3201 5.9296 14.4897 5.99984 14.6665 5.99984C14.8433 5.99984 15.0129 5.9296 15.1379 5.80458C15.2629 5.67955 15.3332 5.50998 15.3332 5.33317V2.6665C15.3332 2.13607 15.1225 1.62736 14.7474 1.25229C14.3723 0.877218 13.8636 0.666504 13.3332 0.666504V0.666504ZM1.33317 5.99984C1.50998 5.99984 1.67955 5.9296 1.80458 5.80458C1.9296 5.67955 1.99984 5.50998 1.99984 5.33317V2.6665C1.99984 2.48969 2.07008 2.32012 2.1951 2.1951C2.32012 2.07008 2.48969 1.99984 2.6665 1.99984H5.33317C5.50998 1.99984 5.67955 1.9296 5.80458 1.80458C5.9296 1.67955 5.99984 1.50998 5.99984 1.33317C5.99984 1.15636 5.9296 0.98679 5.80458 0.861766C5.67955 0.736742 5.50998 0.666504 5.33317 0.666504H2.6665C2.13607 0.666504 1.62736 0.877218 1.25229 1.25229C0.877218 1.62736 0.666504 2.13607 0.666504 2.6665V5.33317C0.666504 5.50998 0.736742 5.67955 0.861766 5.80458C0.98679 5.9296 1.15636 5.99984 1.33317 5.99984ZM6.6665 3.33317H3.99984C3.82303 3.33317 3.65346 3.40341 3.52843 3.52843C3.40341 3.65346 3.33317 3.82303 3.33317 3.99984V6.6665C3.33317 6.84332 3.40341 7.01288 3.52843 7.13791C3.65346 7.26293 3.82303 7.33317 3.99984 7.33317H6.6665C6.84332 7.33317 7.01288 7.26293 7.13791 7.13791C7.26293 7.01288 7.33317 6.84332 7.33317 6.6665V3.99984C7.33317 3.82303 7.26293 3.65346 7.13791 3.52843C7.01288 3.40341 6.84332 3.33317 6.6665 3.33317ZM5.99984 5.99984H4.6665V4.6665H5.99984V5.99984ZM9.33317 7.33317H11.9998C12.1766 7.33317 12.3462 7.26293 12.4712 7.13791C12.5963 7.01288 12.6665 6.84332 12.6665 6.6665V3.99984C12.6665 3.82303 12.5963 3.65346 12.4712 3.52843C12.3462 3.40341 12.1766 3.33317 11.9998 3.33317H9.33317C9.15636 3.33317 8.98679 3.40341 8.86177 3.52843C8.73674 3.65346 8.6665 3.82303 8.6665 3.99984V6.6665C8.6665 6.84332 8.73674 7.01288 8.86177 7.13791C8.98679 7.26293 9.15636 7.33317 9.33317 7.33317ZM9.99984 4.6665H11.3332V5.99984H9.99984V4.6665ZM6.6665 8.6665H3.99984C3.82303 8.6665 3.65346 8.73674 3.52843 8.86177C3.40341 8.98679 3.33317 9.15636 3.33317 9.33317V11.9998C3.33317 12.1766 3.40341 12.3462 3.52843 12.4712C3.65346 12.5963 3.82303 12.6665 3.99984 12.6665H6.6665C6.84332 12.6665 7.01288 12.5963 7.13791 12.4712C7.26293 12.3462 7.33317 12.1766 7.33317 11.9998V9.33317C7.33317 9.15636 7.26293 8.98679 7.13791 8.86177C7.01288 8.73674 6.84332 8.6665 6.6665 8.6665ZM5.99984 11.3332H4.6665V9.99984H5.99984V11.3332ZM9.33317 10.6665C9.50998 10.6665 9.67955 10.5963 9.80458 10.4712C9.9296 10.3462 9.99984 10.1766 9.99984 9.99984C10.1766 9.99984 10.3462 9.9296 10.4712 9.80458C10.5963 9.67955 10.6665 9.50998 10.6665 9.33317C10.6665 9.15636 10.5963 8.98679 10.4712 8.86177C10.3462 8.73674 10.1766 8.6665 9.99984 8.6665H9.33317C9.15636 8.6665 8.98679 8.73674 8.86177 8.86177C8.73674 8.98679 8.6665 9.15636 8.6665 9.33317V9.99984C8.6665 10.1766 8.73674 10.3462 8.86177 10.4712C8.98679 10.5963 9.15636 10.6665 9.33317 10.6665ZM11.9998 8.6665C11.823 8.6665 11.6535 8.73674 11.5284 8.86177C11.4034 8.98679 11.3332 9.15636 11.3332 9.33317V11.3332C11.1564 11.3332 10.9868 11.4034 10.8618 11.5284C10.7367 11.6535 10.6665 11.823 10.6665 11.9998C10.6665 12.1766 10.7367 12.3462 10.8618 12.4712C10.9868 12.5963 11.1564 12.6665 11.3332 12.6665H11.9998C12.1766 12.6665 12.3462 12.5963 12.4712 12.4712C12.5963 12.3462 12.6665 12.1766 12.6665 11.9998V9.33317C12.6665 9.15636 12.5963 8.98679 12.4712 8.86177C12.3462 8.73674 12.1766 8.6665 11.9998 8.6665ZM9.33317 11.3332C9.20132 11.3332 9.07242 11.3723 8.96279 11.4455C8.85316 11.5188 8.76771 11.6229 8.71725 11.7447C8.66679 11.8665 8.65359 12.0006 8.67931 12.1299C8.70504 12.2592 8.76853 12.378 8.86177 12.4712C8.955 12.5645 9.07379 12.628 9.20311 12.6537C9.33243 12.6794 9.46648 12.6662 9.58829 12.6158C9.71011 12.5653 9.81423 12.4799 9.88748 12.3702C9.96074 12.2606 9.99984 12.1317 9.99984 11.9998C9.99984 11.823 9.9296 11.6535 9.80458 11.5284C9.67955 11.4034 9.50998 11.3332 9.33317 11.3332Z" fill="#2DB45F"/>
</svg>
