<svg width="21" height="20" viewBox="0 0 21 20" fill="none" xmlns="http://www.w3.org/2000/svg">
<path fill-rule="evenodd" clip-rule="evenodd" d="M10.5 5.625C11.3653 5.625 12.2112 5.88159 12.9306 6.36232C13.6501 6.84305 14.2108 7.52633 14.542 8.32576C14.8731 9.12519 14.9597 10.0049 14.7909 10.8535C14.6221 11.7022 14.2054 12.4817 13.5936 13.0936C12.9817 13.7054 12.2022 14.1221 11.3535 14.2909C10.5049 14.4597 9.62518 14.3731 8.82576 14.042C8.02633 13.7108 7.34305 13.1501 6.86232 12.4306C6.38159 11.7112 6.125 10.8653 6.125 10C6.125 9.65482 5.84518 9.375 5.5 9.375C5.15482 9.375 4.875 9.65482 4.875 10C4.875 11.1125 5.2049 12.2001 5.82298 13.1251C6.44106 14.0501 7.31957 14.7711 8.3474 15.1968C9.37524 15.6226 10.5062 15.734 11.5974 15.5169C12.6885 15.2999 13.6908 14.7641 14.4775 13.9775C15.2641 13.1908 15.7999 12.1885 16.0169 11.0974C16.234 10.0062 16.1226 8.87524 15.6968 7.84741C15.2711 6.81957 14.5501 5.94107 13.6251 5.32298C12.7001 4.7049 11.6125 4.375 10.5 4.375C10.1548 4.375 9.875 4.65482 9.875 5C9.875 5.34518 10.1548 5.625 10.5 5.625Z" fill="#14142B"/>
<path fill-rule="evenodd" clip-rule="evenodd" d="M11.7759 2.89107C11.5318 2.64699 11.1361 2.64699 10.892 2.89107L9.52 4.26311C9.11321 4.6699 9.11321 5.32945 9.52 5.73624L10.892 7.10828C11.1361 7.35236 11.5318 7.35236 11.7759 7.10828C12.02 6.86421 12.02 6.46848 11.7759 6.2244L10.5512 4.99967L11.7759 3.77495C12.02 3.53087 12.02 3.13514 11.7759 2.89107Z" fill="#14142B"/>
</svg>
