<svg width="24" height="24" viewBox="0 0 24 24" fill="none" xmlns="http://www.w3.org/2000/svg">
<path fill-rule="evenodd" clip-rule="evenodd" d="M12 6.75C10.9617 6.75 9.94662 7.05791 9.08326 7.63478C8.2199 8.21166 7.547 9.0316 7.14964 9.99091C6.75228 10.9502 6.64831 12.0058 6.85088 13.0242C7.05345 14.0426 7.55347 14.9781 8.28769 15.7123C9.02192 16.4465 9.95738 16.9465 10.9758 17.1491C11.9942 17.3517 13.0498 17.2477 14.0091 16.8504C14.9684 16.453 15.7883 15.7801 16.3652 14.9167C16.9421 14.0534 17.25 13.0384 17.25 12C17.25 11.5858 17.5858 11.25 18 11.25C18.4142 11.25 18.75 11.5858 18.75 12C18.75 13.335 18.3541 14.6401 17.6124 15.7501C16.8707 16.8601 15.8165 17.7253 14.5831 18.2362C13.3497 18.7471 11.9925 18.8808 10.6831 18.6203C9.37377 18.3598 8.17104 17.717 7.22703 16.773C6.28303 15.829 5.64015 14.6262 5.3797 13.3169C5.11925 12.0075 5.25292 10.6503 5.76382 9.41689C6.27471 8.18349 7.13987 7.12928 8.2499 6.38758C9.35994 5.64588 10.665 5.25 12 5.25C12.4142 5.25 12.75 5.58579 12.75 6C12.75 6.41421 12.4142 6.75 12 6.75Z" fill="#14142B"/>
<path fill-rule="evenodd" clip-rule="evenodd" d="M10.4697 3.46967C10.7626 3.17678 11.2374 3.17678 11.5303 3.46967L13.1768 5.11612C13.6649 5.60427 13.6649 6.39573 13.1768 6.88388L11.5303 8.53033C11.2374 8.82322 10.7626 8.82322 10.4697 8.53033C10.1768 8.23744 10.1768 7.76256 10.4697 7.46967L11.9393 6L10.4697 4.53033C10.1768 4.23744 10.1768 3.76256 10.4697 3.46967Z" fill="#14142B"/>
</svg>
