<svg width="25" height="24" viewBox="0 0 25 24" fill="none" xmlns="http://www.w3.org/2000/svg">
<path d="M8.79 13.29C8.69627 13.383 8.62188 13.4936 8.57111 13.6154C8.52034 13.7373 8.4942 13.868 8.4942 14C8.4942 14.132 8.52034 14.2627 8.57111 14.3846C8.62188 14.5064 8.69627 14.617 8.79 14.71L11.79 17.71C11.883 17.8037 11.9936 17.8781 12.1154 17.9289C12.2373 17.9797 12.368 18.0058 12.5 18.0058C12.632 18.0058 12.7627 17.9797 12.8846 17.9289C13.0064 17.8781 13.117 17.8037 13.21 17.71L16.21 14.71C16.3983 14.5217 16.5041 14.2663 16.5041 14C16.5041 13.7337 16.3983 13.4783 16.21 13.29C16.0217 13.1017 15.7663 12.9959 15.5 12.9959C15.2337 12.9959 14.9783 13.1017 14.79 13.29L13.5 14.59V3C13.5 2.73478 13.3946 2.48043 13.2071 2.29289C13.0196 2.10536 12.7652 2 12.5 2C12.2348 2 11.9804 2.10536 11.7929 2.29289C11.6054 2.48043 11.5 2.73478 11.5 3V14.59L10.21 13.29C10.117 13.1963 10.0064 13.1219 9.88458 13.0711C9.76272 13.0203 9.63201 12.9942 9.5 12.9942C9.36799 12.9942 9.23728 13.0203 9.11542 13.0711C8.99356 13.1219 8.88296 13.1963 8.79 13.29ZM18.5 9H16.5C16.2348 9 15.9804 9.10536 15.7929 9.29289C15.6054 9.48043 15.5 9.73478 15.5 10C15.5 10.2652 15.6054 10.5196 15.7929 10.7071C15.9804 10.8946 16.2348 11 16.5 11H18.5C18.7652 11 19.0196 11.1054 19.2071 11.2929C19.3946 11.4804 19.5 11.7348 19.5 12V19C19.5 19.2652 19.3946 19.5196 19.2071 19.7071C19.0196 19.8946 18.7652 20 18.5 20H6.5C6.23478 20 5.98043 19.8946 5.79289 19.7071C5.60536 19.5196 5.5 19.2652 5.5 19V12C5.5 11.7348 5.60536 11.4804 5.79289 11.2929C5.98043 11.1054 6.23478 11 6.5 11H8.5C8.76522 11 9.01957 10.8946 9.20711 10.7071C9.39464 10.5196 9.5 10.2652 9.5 10C9.5 9.73478 9.39464 9.48043 9.20711 9.29289C9.01957 9.10536 8.76522 9 8.5 9H6.5C5.70435 9 4.94129 9.31607 4.37868 9.87868C3.81607 10.4413 3.5 11.2044 3.5 12V19C3.5 19.7956 3.81607 20.5587 4.37868 21.1213C4.94129 21.6839 5.70435 22 6.5 22H18.5C19.2956 22 20.0587 21.6839 20.6213 21.1213C21.1839 20.5587 21.5 19.7956 21.5 19V12C21.5 11.2044 21.1839 10.4413 20.6213 9.87868C20.0587 9.31607 19.2956 9 18.5 9Z" fill="#55B4E4"/>
</svg>
