<svg width="25" height="24" viewBox="0 0 25 24" fill="none" xmlns="http://www.w3.org/2000/svg">
<path d="M10.21 6.70994L11.5 5.40994V16.9999C11.5 17.2652 11.6054 17.5195 11.7929 17.707C11.9804 17.8946 12.2348 17.9999 12.5 17.9999C12.7652 17.9999 13.0196 17.8946 13.2071 17.707C13.3946 17.5195 13.5 17.2652 13.5 16.9999V5.40994L14.79 6.70994C14.883 6.80367 14.9936 6.87806 15.1154 6.92883C15.2373 6.9796 15.368 7.00574 15.5 7.00574C15.632 7.00574 15.7627 6.9796 15.8846 6.92883C16.0064 6.87806 16.117 6.80367 16.21 6.70994C16.3037 6.61698 16.3781 6.50637 16.4289 6.38452C16.4797 6.26266 16.5058 6.13195 16.5058 5.99994C16.5058 5.86793 16.4797 5.73722 16.4289 5.61536C16.3781 5.4935 16.3037 5.3829 16.21 5.28994L13.21 2.28994C13.117 2.19621 13.0064 2.12182 12.8846 2.07105C12.7627 2.02028 12.632 1.99414 12.5 1.99414C12.368 1.99414 12.2373 2.02028 12.1154 2.07105C11.9936 2.12182 11.883 2.19621 11.79 2.28994L8.79 5.28994C8.6017 5.47824 8.49591 5.73364 8.49591 5.99994C8.49591 6.26624 8.6017 6.52164 8.79 6.70994C8.9783 6.89824 9.2337 7.00403 9.5 7.00403C9.7663 7.00403 10.0217 6.89824 10.21 6.70994ZM18.5 8.99994H16.5C16.2348 8.99994 15.9804 9.1053 15.7929 9.29283C15.6054 9.48037 15.5 9.73472 15.5 9.99994C15.5 10.2652 15.6054 10.5195 15.7929 10.707C15.9804 10.8946 16.2348 10.9999 16.5 10.9999H18.5C18.7652 10.9999 19.0196 11.1053 19.2071 11.2928C19.3946 11.4804 19.5 11.7347 19.5 11.9999V18.9999C19.5 19.2652 19.3946 19.5195 19.2071 19.707C19.0196 19.8946 18.7652 19.9999 18.5 19.9999H6.5C6.23478 19.9999 5.98043 19.8946 5.79289 19.707C5.60536 19.5195 5.5 19.2652 5.5 18.9999V11.9999C5.5 11.7347 5.60536 11.4804 5.79289 11.2928C5.98043 11.1053 6.23478 10.9999 6.5 10.9999H8.5C8.76522 10.9999 9.01957 10.8946 9.20711 10.707C9.39464 10.5195 9.5 10.2652 9.5 9.99994C9.5 9.73472 9.39464 9.48037 9.20711 9.29283C9.01957 9.1053 8.76522 8.99994 8.5 8.99994H6.5C5.70435 8.99994 4.94129 9.31601 4.37868 9.87862C3.81607 10.4412 3.5 11.2043 3.5 11.9999V18.9999C3.5 19.7956 3.81607 20.5587 4.37868 21.1213C4.94129 21.6839 5.70435 21.9999 6.5 21.9999H18.5C19.2956 21.9999 20.0587 21.6839 20.6213 21.1213C21.1839 20.5587 21.5 19.7956 21.5 18.9999V11.9999C21.5 11.2043 21.1839 10.4412 20.6213 9.87862C20.0587 9.31601 19.2956 8.99994 18.5 8.99994Z" fill="#55B4E4"/>
</svg>
