<svg width="17" height="16" viewBox="0 0 17 16" fill="none" xmlns="http://www.w3.org/2000/svg">
<path d="M9.91162 4V11H7.91162V4H4.91162L8.91162 0L12.9116 4H9.91162Z" fill="white"/>
<path d="M15.9117 16H1.91166C1.62466 16 1.35166 15.877 1.16166 15.662C0.971664 15.447 0.883664 15.161 0.918664 14.876L1.91866 6.876C1.98166 6.375 2.40766 6 2.91166 6H5.91166V8H3.79466L3.04466 14H14.7787L14.0287 8H11.9117V6H14.9117C15.4157 6 15.8417 6.375 15.9037 6.876L16.9037 14.876C16.9397 15.161 16.8507 15.447 16.6607 15.662C16.4717 15.877 16.1987 16 15.9117 16Z" fill="white"/>
</svg>
